<svg width="598" height="78" viewBox="0 0 598 78" fill="none" xmlns="http://www.w3.org/2000/svg">
<rect x="0.595703" y="36" width="134.042" height="41.8903" rx="5.55613" fill="#3A3A3A"/>
<path d="M20.2158 56.2507C20.3417 56.2507 20.4633 56.2962 20.5582 56.379C20.653 56.4617 20.7147 56.576 20.7318 56.7007L20.7367 56.7715V57.1188C20.7368 58.302 20.2895 59.4414 19.4846 60.3086C18.6796 61.1757 17.5766 61.7065 16.3967 61.7943L16.396 63.3694C16.3959 63.5014 16.3458 63.6285 16.2557 63.7249C16.1656 63.8213 16.0422 63.88 15.9106 63.889C15.7789 63.898 15.6487 63.8566 15.5464 63.7734C15.444 63.6901 15.377 63.571 15.359 63.4403L15.3542 63.3694V61.7943C14.2023 61.7087 13.1226 61.201 12.3221 60.3684C11.5215 59.5358 11.0565 58.437 11.0162 57.2827L11.0135 57.1188V56.7715C11.0135 56.6396 11.0636 56.5125 11.1537 56.4161C11.2438 56.3197 11.3672 56.261 11.4988 56.252C11.6305 56.243 11.7607 56.2843 11.8631 56.3676C11.9654 56.4509 12.0324 56.57 12.0504 56.7007L12.0552 56.7715V57.1188C12.0551 58.0599 12.419 58.9646 13.0706 59.6437C13.7222 60.3227 14.6111 60.7235 15.5514 60.7622L15.7014 60.765H16.0487C16.9898 60.7651 17.8945 60.4013 18.5736 59.7497C19.2526 59.0981 19.6534 58.2091 19.6921 57.2688L19.6949 57.1188V56.7715C19.6949 56.6334 19.7498 56.5009 19.8475 56.4032C19.9452 56.3055 20.0777 56.2507 20.2158 56.2507ZM15.8751 50C16.6119 50 17.3185 50.2927 17.8395 50.8137C18.3605 51.3347 18.6531 52.0413 18.6531 52.7781V56.9452C18.6531 57.682 18.3605 58.3886 17.8395 58.9096C17.3185 59.4305 16.6119 59.7232 15.8751 59.7232C15.1383 59.7232 14.4317 59.4305 13.9107 58.9096C13.3897 58.3886 13.097 57.682 13.097 56.9452V52.7781C13.097 52.0413 13.3897 51.3347 13.9107 50.8137C14.4317 50.2927 15.1383 50 15.8751 50Z" fill="white"/>
<path d="M41.6744 53.5453C40.9544 53.1053 40.2144 52.7653 39.4544 52.5253C38.7078 52.2853 38.0478 52.1653 37.4744 52.1653C36.8344 52.1653 36.3278 52.2853 35.9544 52.5253C35.5811 52.7653 35.3944 53.0986 35.3944 53.5253C35.3944 53.912 35.5211 54.2386 35.7744 54.5053C36.0411 54.7586 36.3678 54.972 36.7544 55.1453C37.1544 55.3053 37.6944 55.4853 38.3744 55.6853C39.3211 55.9653 40.0944 56.2453 40.6944 56.5253C41.3078 56.8053 41.8278 57.2186 42.2544 57.7653C42.6811 58.312 42.8944 59.032 42.8944 59.9253C42.8944 60.7786 42.6611 61.5253 42.1944 62.1653C41.7411 62.792 41.1078 63.272 40.2944 63.6053C39.4944 63.9386 38.5744 64.1053 37.5344 64.1053C36.4411 64.1053 35.3744 63.9053 34.3344 63.5053C33.2944 63.092 32.3878 62.5453 31.6144 61.8653L32.7344 59.5853C33.4411 60.2386 34.2344 60.752 35.1144 61.1253C35.9944 61.4986 36.8144 61.6853 37.5744 61.6853C38.3211 61.6853 38.9078 61.5453 39.3344 61.2653C39.7611 60.972 39.9744 60.5786 39.9744 60.0853C39.9744 59.6853 39.8411 59.3586 39.5744 59.1053C39.3211 58.8386 38.9944 58.6253 38.5944 58.4653C38.1944 58.3053 37.6478 58.1253 36.9544 57.9253C36.0078 57.6453 35.2344 57.372 34.6344 57.1053C34.0344 56.8386 33.5211 56.4386 33.0944 55.9053C32.6678 55.3586 32.4544 54.6453 32.4544 53.7653C32.4544 52.952 32.6678 52.2453 33.0944 51.6453C33.5344 51.032 34.1478 50.5586 34.9344 50.2253C35.7344 49.892 36.6544 49.7253 37.6944 49.7253C38.6011 49.7253 39.4944 49.8586 40.3744 50.1253C41.2678 50.392 42.0611 50.752 42.7544 51.2053L41.6744 53.5453ZM51.633 53.1653C52.633 53.1653 53.513 53.3986 54.273 53.8653C55.0464 54.3186 55.6397 54.9586 56.053 55.7853C56.4797 56.612 56.693 57.5653 56.693 58.6453C56.693 59.712 56.4864 60.652 56.073 61.4653C55.6597 62.2786 55.073 62.912 54.313 63.3653C53.553 63.8186 52.673 64.0453 51.673 64.0453C50.873 64.0453 50.1664 63.892 49.553 63.5853C48.9397 63.2653 48.433 62.8053 48.033 62.2053V67.8253H45.433V53.2453H48.033V55.0053C48.4197 54.4053 48.913 53.952 49.513 53.6453C50.1264 53.3253 50.833 53.1653 51.633 53.1653ZM51.053 61.8053C51.933 61.8053 52.653 61.5053 53.213 60.9053C53.773 60.292 54.053 59.512 54.053 58.5653C54.053 57.6186 53.773 56.8453 53.213 56.2453C52.653 55.6453 51.933 55.3453 51.053 55.3453C50.1597 55.3453 49.433 55.6453 48.873 56.2453C48.313 56.8453 48.033 57.6186 48.033 58.5653C48.033 59.5253 48.313 60.3053 48.873 60.9053C49.433 61.5053 50.1597 61.8053 51.053 61.8053ZM63.4063 53.1653C65.113 53.1653 66.393 53.652 67.2463 54.6253C68.113 55.5986 68.5463 56.9653 68.5463 58.7253C68.5463 59.072 68.5397 59.332 68.5263 59.5053H60.6263C60.7997 60.2653 61.153 60.8653 61.6863 61.3053C62.233 61.732 62.8997 61.9453 63.6863 61.9453C64.233 61.9453 64.753 61.8453 65.2463 61.6453C65.753 61.432 66.193 61.132 66.5663 60.7453L67.9663 62.2053C67.433 62.792 66.7797 63.2453 66.0063 63.5653C65.2463 63.8853 64.3997 64.0453 63.4663 64.0453C62.373 64.0453 61.4063 63.8186 60.5663 63.3653C59.7397 62.912 59.0997 62.2786 58.6463 61.4653C58.193 60.6386 57.9663 59.692 57.9663 58.6253C57.9663 57.5586 58.193 56.612 58.6463 55.7853C59.113 54.9586 59.7597 54.3186 60.5863 53.8653C61.413 53.3986 62.353 53.1653 63.4063 53.1653ZM66.1663 57.7653C66.1397 56.9786 65.8797 56.352 65.3863 55.8853C64.893 55.4186 64.2397 55.1853 63.4263 55.1853C62.6663 55.1853 62.0263 55.4186 61.5063 55.8853C60.9997 56.3386 60.6863 56.9653 60.5663 57.7653H66.1663ZM77.1023 63.9453V62.6453C76.7289 63.112 76.2489 63.4653 75.6623 63.7053C75.0756 63.9453 74.4023 64.0653 73.6423 64.0653C72.8956 64.0653 72.2356 63.9253 71.6623 63.6453C71.1023 63.352 70.6689 62.952 70.3623 62.4453C70.0556 61.9386 69.9023 61.372 69.9023 60.7453C69.9023 59.7453 70.2556 58.9653 70.9623 58.4053C71.6689 57.832 72.6689 57.5386 73.9623 57.5253H77.0823V57.2453C77.0823 56.6186 76.8756 56.132 76.4623 55.7853C76.0489 55.4386 75.4489 55.2653 74.6623 55.2653C73.6489 55.2653 72.5889 55.5986 71.4823 56.2653L70.5423 54.4653C71.3823 53.9986 72.1423 53.6653 72.8223 53.4653C73.5156 53.252 74.3223 53.1453 75.2423 53.1453C76.6289 53.1453 77.7023 53.4786 78.4623 54.1453C79.2356 54.812 79.6289 55.7453 79.6423 56.9453L79.6623 63.9453H77.1023ZM74.2623 62.0653C75.0089 62.0653 75.6489 61.892 76.1823 61.5453C76.7156 61.1853 77.0156 60.7453 77.0823 60.2253V59.2653H74.3823C73.6889 59.2653 73.1756 59.372 72.8423 59.5853C72.5223 59.7853 72.3623 60.1186 72.3623 60.5853C72.3623 61.0386 72.5289 61.3986 72.8623 61.6653C73.2089 61.932 73.6756 62.0653 74.2623 62.0653ZM89.8191 63.9453L86.9191 59.2653L85.2791 60.9853V63.9453H82.6791V49.1053H85.2791V57.7053L89.6791 53.2653H92.6791L88.7191 57.3853L92.9191 63.9453H89.8191ZM98.6212 53.1653C100.328 53.1653 101.608 53.652 102.461 54.6253C103.328 55.5986 103.761 56.9653 103.761 58.7253C103.761 59.072 103.754 59.332 103.741 59.5053H95.8412C96.0145 60.2653 96.3678 60.8653 96.9012 61.3053C97.4478 61.732 98.1145 61.9453 98.9012 61.9453C99.4478 61.9453 99.9678 61.8453 100.461 61.6453C100.968 61.432 101.408 61.132 101.781 60.7453L103.181 62.2053C102.648 62.792 101.994 63.2453 101.221 63.5653C100.461 63.8853 99.6145 64.0453 98.6812 64.0453C97.5878 64.0453 96.6212 63.8186 95.7812 63.3653C94.9545 62.912 94.3145 62.2786 93.8612 61.4653C93.4078 60.6386 93.1812 59.692 93.1812 58.6253C93.1812 57.5586 93.4078 56.612 93.8612 55.7853C94.3278 54.9586 94.9745 54.3186 95.8012 53.8653C96.6278 53.3986 97.5678 53.1653 98.6212 53.1653ZM101.381 57.7653C101.354 56.9786 101.094 56.352 100.601 55.8853C100.108 55.4186 99.4545 55.1853 98.6412 55.1853C97.8812 55.1853 97.2412 55.4186 96.7212 55.8853C96.2145 56.3386 95.9012 56.9653 95.7812 57.7653H101.381ZM108.597 55.3053C108.957 54.612 109.444 54.0853 110.057 53.7253C110.684 53.352 111.41 53.1586 112.237 53.1453V55.6653C111.13 55.5986 110.244 55.8586 109.577 56.4453C108.924 57.0186 108.597 57.7986 108.597 58.7853V63.9453H105.997V53.2453H108.597V55.3053Z" fill="white"/>
<rect x="144.637" y="36" width="191.687" height="41.8903" rx="5.55613" fill="#3A3A3A"/>
<path d="M160.611 59.724H159.222C158.84 59.724 158.528 59.4115 158.528 59.0295H153.673V61.8076C153.673 62.5715 154.298 63.1966 155.062 63.1966H164.778C165.542 63.1966 166.167 62.5715 166.167 61.8076V59.0295H161.306C161.306 59.4115 160.993 59.724 160.611 59.724ZM165.473 53.4734H162.695C162.695 51.9385 161.452 50.6953 159.917 50.6953C158.382 50.6953 157.139 51.9385 157.139 53.4734H154.361C153.597 53.4734 152.972 54.0984 152.972 54.8624V56.946C152.972 57.7169 153.59 58.335 154.361 58.335H158.528V57.6405C158.528 57.2585 158.84 56.946 159.222 56.946H160.611C160.993 56.946 161.306 57.2585 161.306 57.6405V58.335H165.473C166.237 58.335 166.862 57.7099 166.862 56.946V54.8624C166.862 54.0984 166.237 53.4734 165.473 53.4734ZM158.528 53.4734C158.528 52.7094 159.153 52.0843 159.917 52.0843C160.681 52.0843 161.306 52.7094 161.306 53.4734H158.521H158.528Z" fill="white"/>
<path d="M176.916 49.9453H187.176V52.2853H179.596V55.7453H186.396V58.0853H179.596V61.6053H187.416V63.9453H176.916V49.9453ZM196.479 53.1453C197.705 53.1453 198.672 53.5186 199.379 54.2653C200.085 54.9986 200.439 55.9986 200.439 57.2653V63.9453H197.819V58.0253C197.819 57.2786 197.605 56.692 197.179 56.2653C196.752 55.8253 196.172 55.6053 195.439 55.6053C194.572 55.6186 193.885 55.912 193.379 56.4853C192.885 57.0586 192.639 57.792 192.639 58.6853V63.9453H190.039V53.2453H192.639V55.2453C193.372 53.872 194.652 53.172 196.479 53.1453ZM209.619 63.2853C208.766 63.8053 207.872 64.0653 206.939 64.0653C206.019 64.0653 205.266 63.7986 204.679 63.2653C204.092 62.7186 203.799 61.9186 203.799 60.8653V55.5853H202.299L202.279 53.6853H203.799V50.7453H206.379V53.6853H209.439V55.5853H206.379V60.4053C206.379 60.8986 206.472 61.252 206.659 61.4653C206.846 61.6653 207.126 61.7653 207.499 61.7653C207.899 61.7653 208.406 61.6186 209.019 61.3253L209.619 63.2853ZM214.26 55.3053C214.62 54.612 215.107 54.0853 215.72 53.7253C216.347 53.352 217.073 53.1586 217.9 53.1453V55.6653C216.793 55.5986 215.907 55.8586 215.24 56.4453C214.587 57.0186 214.26 57.7986 214.26 58.7853V63.9453H211.66V53.2453H214.26V55.3053ZM224.186 53.1653C225.893 53.1653 227.173 53.652 228.026 54.6253C228.893 55.5986 229.326 56.9653 229.326 58.7253C229.326 59.072 229.32 59.332 229.306 59.5053H221.406C221.58 60.2653 221.933 60.8653 222.466 61.3053C223.013 61.732 223.68 61.9453 224.466 61.9453C225.013 61.9453 225.533 61.8453 226.026 61.6453C226.533 61.432 226.973 61.132 227.346 60.7453L228.746 62.2053C228.213 62.792 227.56 63.2453 226.786 63.5653C226.026 63.8853 225.18 64.0453 224.246 64.0453C223.153 64.0453 222.186 63.8186 221.346 63.3653C220.52 62.912 219.88 62.2786 219.426 61.4653C218.973 60.6386 218.746 59.692 218.746 58.6253C218.746 57.5586 218.973 56.612 219.426 55.7853C219.893 54.9586 220.54 54.3186 221.366 53.8653C222.193 53.3986 223.133 53.1653 224.186 53.1653ZM226.946 57.7653C226.92 56.9786 226.66 56.352 226.166 55.8853C225.673 55.4186 225.02 55.1853 224.206 55.1853C223.446 55.1853 222.806 55.4186 222.286 55.8853C221.78 56.3386 221.466 56.9653 221.346 57.7653H226.946ZM237.862 53.1653C238.862 53.1653 239.742 53.3986 240.502 53.8653C241.276 54.3186 241.869 54.9586 242.282 55.7853C242.709 56.612 242.922 57.5653 242.922 58.6453C242.922 59.712 242.716 60.652 242.302 61.4653C241.889 62.2786 241.302 62.912 240.542 63.3653C239.782 63.8186 238.902 64.0453 237.902 64.0453C237.102 64.0453 236.396 63.892 235.782 63.5853C235.169 63.2653 234.662 62.8053 234.262 62.2053V67.8253H231.662V53.2453H234.262V55.0053C234.649 54.4053 235.142 53.952 235.742 53.6453C236.356 53.3253 237.062 53.1653 237.862 53.1653ZM237.282 61.8053C238.162 61.8053 238.882 61.5053 239.442 60.9053C240.002 60.292 240.282 59.512 240.282 58.5653C240.282 57.6186 240.002 56.8453 239.442 56.2453C238.882 55.6453 238.162 55.3453 237.282 55.3453C236.389 55.3453 235.662 55.6453 235.102 56.2453C234.542 56.8453 234.262 57.6186 234.262 58.5653C234.262 59.5253 234.542 60.3053 235.102 60.9053C235.662 61.5053 236.389 61.8053 237.282 61.8053ZM247.776 55.3053C248.136 54.612 248.622 54.0853 249.236 53.7253C249.862 53.352 250.589 53.1586 251.416 53.1453V55.6653C250.309 55.5986 249.422 55.8586 248.756 56.4453C248.102 57.0186 247.776 57.7986 247.776 58.7853V63.9453H245.176V53.2453H247.776V55.3053ZM257.702 53.1653C259.409 53.1653 260.689 53.652 261.542 54.6253C262.409 55.5986 262.842 56.9653 262.842 58.7253C262.842 59.072 262.835 59.332 262.822 59.5053H254.922C255.095 60.2653 255.449 60.8653 255.982 61.3053C256.529 61.732 257.195 61.9453 257.982 61.9453C258.529 61.9453 259.049 61.8453 259.542 61.6453C260.049 61.432 260.489 61.132 260.862 60.7453L262.262 62.2053C261.729 62.792 261.075 63.2453 260.302 63.5653C259.542 63.8853 258.695 64.0453 257.762 64.0453C256.669 64.0453 255.702 63.8186 254.862 63.3653C254.035 62.912 253.395 62.2786 252.942 61.4653C252.489 60.6386 252.262 59.692 252.262 58.6253C252.262 57.5586 252.489 56.612 252.942 55.7853C253.409 54.9586 254.055 54.3186 254.882 53.8653C255.709 53.3986 256.649 53.1653 257.702 53.1653ZM260.462 57.7653C260.435 56.9786 260.175 56.352 259.682 55.8853C259.189 55.4186 258.535 55.1853 257.722 55.1853C256.962 55.1853 256.322 55.4186 255.802 55.8853C255.295 56.3386 254.982 56.9653 254.862 57.7653H260.462ZM271.518 53.1453C272.745 53.1453 273.711 53.5186 274.418 54.2653C275.125 54.9986 275.478 55.9986 275.478 57.2653V63.9453H272.858V58.0253C272.858 57.2786 272.645 56.692 272.218 56.2653C271.791 55.8253 271.211 55.6053 270.478 55.6053C269.611 55.6186 268.925 55.912 268.418 56.4853C267.925 57.0586 267.678 57.792 267.678 58.6853V63.9453H265.078V53.2453H267.678V55.2453C268.411 53.872 269.691 53.172 271.518 53.1453ZM282.858 53.1653C284.565 53.1653 285.845 53.652 286.698 54.6253C287.565 55.5986 287.998 56.9653 287.998 58.7253C287.998 59.072 287.992 59.332 287.978 59.5053H280.078C280.252 60.2653 280.605 60.8653 281.138 61.3053C281.685 61.732 282.352 61.9453 283.138 61.9453C283.685 61.9453 284.205 61.8453 284.698 61.6453C285.205 61.432 285.645 61.132 286.018 60.7453L287.418 62.2053C286.885 62.792 286.232 63.2453 285.458 63.5653C284.698 63.8853 283.852 64.0453 282.918 64.0453C281.825 64.0453 280.858 63.8186 280.018 63.3653C279.192 62.912 278.552 62.2786 278.098 61.4653C277.645 60.6386 277.418 59.692 277.418 58.6253C277.418 57.5586 277.645 56.612 278.098 55.7853C278.565 54.9586 279.212 54.3186 280.038 53.8653C280.865 53.3986 281.805 53.1653 282.858 53.1653ZM285.618 57.7653C285.592 56.9786 285.332 56.352 284.838 55.8853C284.345 55.4186 283.692 55.1853 282.878 55.1853C282.118 55.1853 281.478 55.4186 280.958 55.8853C280.452 56.3386 280.138 56.9653 280.018 57.7653H285.618ZM300.114 53.2453V63.9453H297.494V61.9653C296.774 63.352 295.534 64.0453 293.774 64.0453C292.574 64.0453 291.627 63.6786 290.934 62.9453C290.241 62.212 289.894 61.212 289.894 59.9453V53.2453H292.514V59.1853C292.514 59.932 292.714 60.5186 293.114 60.9453C293.527 61.372 294.094 61.5853 294.814 61.5853C295.641 61.572 296.294 61.2786 296.774 60.7053C297.254 60.132 297.494 59.4053 297.494 58.5253V53.2453H300.114ZM305.959 55.3053C306.319 54.612 306.806 54.0853 307.419 53.7253C308.046 53.352 308.772 53.1586 309.599 53.1453V55.6653C308.492 55.5986 307.606 55.8586 306.939 56.4453C306.286 57.0186 305.959 57.7986 305.959 58.7853V63.9453H303.359V53.2453H305.959V55.3053Z" fill="white"/>
<rect x="346.324" y="36" width="124.319" height="41.8903" rx="5.55613" fill="#3A3A3A"/>
<path d="M367.437 62.6959V60.6124C367.437 60.029 367.354 59.4456 367.021 58.8622C366.687 58.2788 366.271 57.7788 365.687 57.4454C365.104 57.0287 363.854 56.9453 363.27 56.9453L361.937 58.3622L362.437 59.4456V61.9459L361.603 62.8626L360.77 61.9459V59.4456L361.353 58.3622L359.937 56.9453C359.27 56.9453 358.02 57.0287 357.436 57.4454C356.853 57.7788 356.52 58.2788 356.186 58.8622C355.853 59.4456 355.77 59.9457 355.77 60.6124V62.6959C355.77 62.6959 357.936 63.6127 361.603 63.6127C365.27 63.6127 367.437 62.6959 367.437 62.6959ZM361.603 50.3613C360.02 50.3613 359.103 51.8615 359.353 53.5283C359.603 55.1952 360.437 56.362 361.603 56.362C362.77 56.362 363.604 55.1952 363.854 53.5283C364.104 51.7781 363.187 50.3613 361.603 50.3613Z" fill="white"/>
<path d="M378.603 49.9453H381.663L386.303 58.9653L390.903 49.9453H393.963V63.9453H391.503V53.9053L387.143 62.5053H385.423L381.043 53.9053V63.9453H378.603V49.9453ZM401.771 53.1653C403.478 53.1653 404.758 53.652 405.611 54.6253C406.478 55.5986 406.911 56.9653 406.911 58.7253C406.911 59.072 406.905 59.332 406.891 59.5053H398.991C399.165 60.2653 399.518 60.8653 400.051 61.3053C400.598 61.732 401.265 61.9453 402.051 61.9453C402.598 61.9453 403.118 61.8453 403.611 61.6453C404.118 61.432 404.558 61.132 404.931 60.7453L406.331 62.2053C405.798 62.792 405.145 63.2453 404.371 63.5653C403.611 63.8853 402.765 64.0453 401.831 64.0453C400.738 64.0453 399.771 63.8186 398.931 63.3653C398.105 62.912 397.465 62.2786 397.011 61.4653C396.558 60.6386 396.331 59.692 396.331 58.6253C396.331 57.5586 396.558 56.612 397.011 55.7853C397.478 54.9586 398.125 54.3186 398.951 53.8653C399.778 53.3986 400.718 53.1653 401.771 53.1653ZM404.531 57.7653C404.505 56.9786 404.245 56.352 403.751 55.8853C403.258 55.4186 402.605 55.1853 401.791 55.1853C401.031 55.1853 400.391 55.4186 399.871 55.8853C399.365 56.3386 399.051 56.9653 398.931 57.7653H404.531ZM415.587 53.1453C416.814 53.1453 417.781 53.5186 418.487 54.2653C419.194 54.9986 419.547 55.9986 419.547 57.2653V63.9453H416.927V58.0253C416.927 57.2786 416.714 56.692 416.287 56.2653C415.861 55.8253 415.281 55.6053 414.547 55.6053C413.681 55.6186 412.994 55.912 412.487 56.4853C411.994 57.0586 411.747 57.792 411.747 58.6853V63.9453H409.147V53.2453H411.747V55.2453C412.481 53.872 413.761 53.172 415.587 53.1453ZM428.728 63.2853C427.874 63.8053 426.981 64.0653 426.048 64.0653C425.128 64.0653 424.374 63.7986 423.788 63.2653C423.201 62.7186 422.908 61.9186 422.908 60.8653V55.5853H421.408L421.388 53.6853H422.908V50.7453H425.488V53.6853H428.548V55.5853H425.488V60.4053C425.488 60.8986 425.581 61.252 425.768 61.4653C425.954 61.6653 426.234 61.7653 426.608 61.7653C427.008 61.7653 427.514 61.6186 428.128 61.3253L428.728 63.2853ZM435.351 53.1653C436.457 53.1653 437.431 53.392 438.271 53.8453C439.124 54.2986 439.784 54.9386 440.251 55.7653C440.731 56.5786 440.971 57.5186 440.971 58.5853C440.971 59.6653 440.731 60.6186 440.251 61.4453C439.784 62.272 439.124 62.912 438.271 63.3653C437.431 63.8186 436.457 64.0453 435.351 64.0453C434.231 64.0453 433.244 63.8186 432.391 63.3653C431.537 62.912 430.871 62.272 430.391 61.4453C429.924 60.6186 429.691 59.6653 429.691 58.5853C429.691 57.5186 429.924 56.5786 430.391 55.7653C430.871 54.9386 431.537 54.2986 432.391 53.8453C433.244 53.392 434.231 53.1653 435.351 53.1653ZM435.351 55.3853C434.444 55.3853 433.711 55.6853 433.151 56.2853C432.591 56.8853 432.311 57.6653 432.311 58.6253C432.311 59.5853 432.591 60.3653 433.151 60.9653C433.711 61.5653 434.444 61.8653 435.351 61.8653C436.231 61.8653 436.951 61.5653 437.511 60.9653C438.071 60.3653 438.351 59.5853 438.351 58.6253C438.351 57.6653 438.071 56.8853 437.511 56.2853C436.951 55.6853 436.231 55.3853 435.351 55.3853ZM445.829 55.3053C446.189 54.612 446.676 54.0853 447.289 53.7253C447.916 53.352 448.643 53.1586 449.469 53.1453V55.6653C448.363 55.5986 447.476 55.8586 446.809 56.4453C446.156 57.0186 445.829 57.7986 445.829 58.7853V63.9453H443.229V53.2453H445.829V55.3053Z" fill="white"/>
<rect x="480.643" y="36" width="116.679" height="41.8903" rx="5.55613" fill="#3A3A3A"/>
<path d="M500.089 50.6945C500.457 50.6945 500.811 50.8409 501.071 51.1014C501.332 51.3618 501.478 51.7152 501.478 52.0836C501.478 52.6461 501.131 53.1253 500.665 53.3476L499.395 57.7439V61.1123H492.449V57.7439L491.178 53.3476C490.713 53.1253 490.366 52.6461 490.366 52.0836C490.366 51.7152 490.512 51.3618 490.773 51.1014C491.033 50.8409 491.386 50.6945 491.755 50.6945C492.123 50.6945 492.477 50.8409 492.737 51.1014C492.998 51.3618 493.144 51.7152 493.144 52.0836C493.144 52.4308 493.019 52.7433 492.797 52.9864L494.741 55.1047L495.109 52.5142C494.762 52.2641 494.533 51.8544 494.533 51.389C494.533 51.0206 494.679 50.6673 494.94 50.4068C495.2 50.1463 495.554 50 495.922 50C496.29 50 496.644 50.1463 496.904 50.4068C497.165 50.6673 497.311 51.0206 497.311 51.389C497.311 51.8544 497.082 52.2641 496.735 52.5142L497.103 55.1047L499.026 52.9795C498.815 52.7287 498.7 52.4114 498.7 52.0836C498.7 51.7152 498.846 51.3618 499.107 51.1014C499.367 50.8409 499.721 50.6945 500.089 50.6945ZM491.06 62.5013H500.784V63.8903H491.06V62.5013Z" fill="white"/>
<path d="M512.921 49.9453H515.601V61.5253H521.641V63.9453H512.921V49.9453ZM528.102 53.1653C529.808 53.1653 531.088 53.652 531.942 54.6253C532.808 55.5986 533.242 56.9653 533.242 58.7253C533.242 59.072 533.235 59.332 533.222 59.5053H525.322C525.495 60.2653 525.848 60.8653 526.382 61.3053C526.928 61.732 527.595 61.9453 528.382 61.9453C528.928 61.9453 529.448 61.8453 529.942 61.6453C530.448 61.432 530.888 61.132 531.262 60.7453L532.662 62.2053C532.128 62.792 531.475 63.2453 530.702 63.5653C529.942 63.8853 529.095 64.0453 528.162 64.0453C527.068 64.0453 526.102 63.8186 525.262 63.3653C524.435 62.912 523.795 62.2786 523.342 61.4653C522.888 60.6386 522.662 59.692 522.662 58.6253C522.662 57.5586 522.888 56.612 523.342 55.7853C523.808 54.9586 524.455 54.3186 525.282 53.8653C526.108 53.3986 527.048 53.1653 528.102 53.1653ZM530.862 57.7653C530.835 56.9786 530.575 56.352 530.082 55.8853C529.588 55.4186 528.935 55.1853 528.122 55.1853C527.362 55.1853 526.722 55.4186 526.202 55.8853C525.695 56.3386 525.382 56.9653 525.262 57.7653H530.862ZM541.798 63.9453V62.6453C541.424 63.112 540.944 63.4653 540.358 63.7053C539.771 63.9453 539.098 64.0653 538.338 64.0653C537.591 64.0653 536.931 63.9253 536.358 63.6453C535.798 63.352 535.364 62.952 535.058 62.4453C534.751 61.9386 534.598 61.372 534.598 60.7453C534.598 59.7453 534.951 58.9653 535.658 58.4053C536.364 57.832 537.364 57.5386 538.658 57.5253H541.778V57.2453C541.778 56.6186 541.571 56.132 541.158 55.7853C540.744 55.4386 540.144 55.2653 539.358 55.2653C538.344 55.2653 537.284 55.5986 536.178 56.2653L535.238 54.4653C536.078 53.9986 536.838 53.6653 537.518 53.4653C538.211 53.252 539.018 53.1453 539.938 53.1453C541.324 53.1453 542.398 53.4786 543.158 54.1453C543.931 54.812 544.324 55.7453 544.338 56.9453L544.358 63.9453H541.798ZM538.958 62.0653C539.704 62.0653 540.344 61.892 540.878 61.5453C541.411 61.1853 541.711 60.7453 541.778 60.2253V59.2653H539.078C538.384 59.2653 537.871 59.372 537.538 59.5853C537.218 59.7853 537.058 60.1186 537.058 60.5853C537.058 61.0386 537.224 61.3986 537.558 61.6653C537.904 61.932 538.371 62.0653 538.958 62.0653ZM557.594 49.1053V63.9453H554.994V62.2253C554.608 62.8253 554.108 63.2853 553.494 63.6053C552.894 63.912 552.194 64.0653 551.394 64.0653C550.381 64.0653 549.488 63.8386 548.714 63.3853C547.954 62.9186 547.361 62.272 546.934 61.4453C546.508 60.6053 546.294 59.6453 546.294 58.5653C546.294 57.4986 546.501 56.5586 546.914 55.7453C547.341 54.9186 547.934 54.2786 548.694 53.8253C549.468 53.372 550.348 53.1453 551.334 53.1453C552.148 53.1453 552.861 53.3053 553.474 53.6253C554.088 53.9453 554.594 54.4053 554.994 55.0053V49.1053H557.594ZM551.954 61.8853C552.848 61.8853 553.574 61.5853 554.134 60.9853C554.708 60.372 554.994 59.5853 554.994 58.6253C554.994 57.6653 554.708 56.8853 554.134 56.2853C553.574 55.672 552.848 55.3653 551.954 55.3653C551.061 55.3653 550.334 55.672 549.774 56.2853C549.214 56.8853 548.928 57.6653 548.914 58.6253C548.928 59.5853 549.214 60.372 549.774 60.9853C550.334 61.5853 551.061 61.8853 551.954 61.8853ZM565.387 53.1653C567.093 53.1653 568.373 53.652 569.227 54.6253C570.093 55.5986 570.527 56.9653 570.527 58.7253C570.527 59.072 570.52 59.332 570.507 59.5053H562.607C562.78 60.2653 563.133 60.8653 563.667 61.3053C564.213 61.732 564.88 61.9453 565.667 61.9453C566.213 61.9453 566.733 61.8453 567.227 61.6453C567.733 61.432 568.173 61.132 568.547 60.7453L569.947 62.2053C569.413 62.792 568.76 63.2453 567.987 63.5653C567.227 63.8853 566.38 64.0453 565.447 64.0453C564.353 64.0453 563.387 63.8186 562.547 63.3653C561.72 62.912 561.08 62.2786 560.627 61.4653C560.173 60.6386 559.947 59.692 559.947 58.6253C559.947 57.5586 560.173 56.612 560.627 55.7853C561.093 54.9586 561.74 54.3186 562.567 53.8653C563.393 53.3986 564.333 53.1653 565.387 53.1653ZM568.147 57.7653C568.12 56.9786 567.86 56.352 567.367 55.8853C566.873 55.4186 566.22 55.1853 565.407 55.1853C564.647 55.1853 564.007 55.4186 563.487 55.8853C562.98 56.3386 562.667 56.9653 562.547 57.7653H568.147ZM575.363 55.3053C575.723 54.612 576.209 54.0853 576.823 53.7253C577.449 53.352 578.176 53.1586 579.003 53.1453V55.6653C577.896 55.5986 577.009 55.8586 576.343 56.4453C575.689 57.0186 575.363 57.7986 575.363 58.7853V63.9453H572.763V53.2453H575.363V55.3053Z" fill="white"/>
<path d="M0.595703 0.694517H597.321V-0.694517H0.595703V0.694517Z" fill="#B7B7B7" mask="url(#path-1-inside-1_330_252)"/>
</svg>
